<svg width="512" height="512" xmlns="http://www.w3.org/2000/svg">
  <!-- Gradient background -->
  <defs>
    <linearGradient id="grad1" x1="0%" y1="0%" x2="100%" y2="100%">
      <stop offset="0%" style="stop-color:#1e40af;stop-opacity:1" />
      <stop offset="100%" style="stop-color:#3b82f6;stop-opacity:1" />
    </linearGradient>
  </defs>
  
  <!-- Background -->
  <rect width="512" height="512" fill="url(#grad1)" rx="80"/>
  
  <!-- Folder icon -->
  <g transform="translate(64, 120)">
    <path d="M0 40 L120 40 L160 80 L384 80 L384 320 L0 320 Z" fill="#60a5fa" opacity="0.9"/>
    <path d="M0 80 L384 80 L384 320 L0 320 Z" fill="#3b82f6"/>
  </g>
  
  <!-- Shield/Lock overlay -->
  <g transform="translate(200, 180)">
    <path d="M56 0 L112 16 L112 80 C112 112 56 128 56 128 C56 128 0 112 0 80 L0 16 Z" fill="#10b981" stroke="#059669" stroke-width="4"/>
    
    <!-- Checkmark -->
    <path d="M32 64 L48 80 L80 32" fill="none" stroke="white" stroke-width="10" stroke-linecap="round" stroke-linejoin="round"/>
  </g>
  
  <!-- Bottom accent - Film/TV bars -->
  <rect x="64" y="420" width="384" height="12" fill="#fbbf24" rx="4"/>
  <rect x="64" y="460" width="384" height="12" fill="#fbbf24" rx="4"/>
</svg>
